<?xml version="1.0" standalone="no"?>
<!DOCTYPE svg PUBLIC "-//W3C//DTD SVG 1.1//EN" "http://www.w3.org/Graphics/SVG/1.1/DTD/svg11.dtd" >
<svg xmlns="http://www.w3.org/2000/svg" xmlns:xlink="http://www.w3.org/1999/xlink" version="1.1">
<metadata>
Created by FontForge 20161003 at Mon Nov 20 17:13:19 2017
 By www-data
Copyright (c) 2013 by Avraham Cornfeld. All rights reserved.
</metadata>
<defs>
<font id="almonitzaraaaregular" horiz-adv-x="0" >
  <font-face 
    font-family="almonitzaraaaregular"
    font-weight="400"
    font-stretch="normal"
    units-per-em="2048"
    panose-1="2 11 5 6 2 2 2 2 2 4"
    ascent="1648"
    descent="-400"
    bbox="-320 -579 2974 1672"
    underline-thickness="50"
    underline-position="-400"
    unicode-range="U+0020-FB4B"
  />
<missing-glyph horiz-adv-x="390" 
 />
    <glyph glyph-name=".notdef" horiz-adv-x="390" 
 />
    <glyph glyph-name=".null" 
 />
    <glyph glyph-name="nonmarkingreturn" horiz-adv-x="682" 
 />
    <glyph glyph-name="space" unicode=" " horiz-adv-x="390" 
 />
    <glyph glyph-name="exclam" unicode="!" horiz-adv-x="516" 
d="M156 1268h209v-608l-49 -234h-121l-39 234v608zM156 0h210v236h-210v-236z" />
    <glyph glyph-name="quotedbl" unicode="&#x22;" horiz-adv-x="617" 
d="M84 915l59 525h152v-154l-129 -371h-82zM338 915l59 525h152v-154l-129 -371h-82z" />
    <glyph glyph-name="numbersign" unicode="#" horiz-adv-x="1004" 
d="M955 573h-175l-91 -245h178l-39 -123h-185l-76 -205h-161l76 205h-160l-82 -205h-153l79 205h-178l37 123h185l93 245h-187l34 120h198l71 186h160l-71 -186h159l69 186h161l-70 -186h166zM528 328l91 245h-156l-93 -245h158z" />
    <glyph glyph-name="dollar" unicode="$" horiz-adv-x="874" 
d="M835 345q0 -151 -85.5 -240.5t-247.5 -100.5v-158h-111v158q-149 5 -240 97.5t-91 241.5h196q0 -86 36 -137.5t99 -52.5v436q-69 39 -120 75t-97.5 82t-71 100t-24.5 114q0 136 76 223t237 92v162h111v-164q160 -9 235.5 -88t75.5 -245v-5h-181q1 86 -28.5 133.5
t-101.5 47.5v-367q20 -13 60 -37t60.5 -36.5t53.5 -36.5t50.5 -42t40.5 -46.5t35 -57t21.5 -67t11.5 -81.5zM264 989q0 -39 8.5 -69.5t38 -66t80.5 -65.5v332q-127 0 -127 -131zM502 153q41 0 69 10.5t43 25.5t23 43t9.5 50t1.5 59q0 28 -4 49.5t-17.5 50t-45 56t-79.5 53.5
v-397z" />
    <glyph glyph-name="percent" unicode="%" horiz-adv-x="1015" 
d="M233 0l675 1272h-155l-679 -1272h159zM768 652q83 0 133 -45.5t50 -134.5v-303q0 -89 -50.5 -134.5t-132.5 -45.5q-81 0 -130.5 45.5t-49.5 134.5v303q0 89 49.5 134.5t130.5 45.5zM812 180v282q0 66 -44 66q-43 0 -43 -66v-282q0 -67 43 -67q26 0 35 17.5t9 49.5z
M223 1296q83 0 133 -45.5t50 -134.5v-303q0 -89 -50.5 -134.5t-132.5 -45.5q-81 0 -130.5 45.5t-49.5 134.5v303q0 89 49.5 134.5t130.5 45.5zM267 824v282q0 66 -44 66q-43 0 -43 -66v-282q0 -67 43 -67q26 0 35 17.5t9 49.5z" />
    <glyph glyph-name="quotesingle" unicode="'" horiz-adv-x="394" 
d="M74 908l66 531h171v-156l-145 -375h-92z" />
    <glyph glyph-name="parenleft" unicode="(" horiz-adv-x="671" 
d="M687 -227v-81q-21 -5 -92 -5q-239 0 -332.5 218t-93.5 731q0 516 93.5 734.5t332.5 218.5q58 0 92 -8v-81q-44 -3 -79 -10.5t-64.5 -24t-51.5 -35.5t-39.5 -53t-29.5 -68t-21 -89.5t-14 -108.5t-7.5 -134t-3.5 -156t-1 -185q0 -109 1 -184t3.5 -156t7.5 -133.5t14 -108
t21 -89.5t29.5 -68.5t39.5 -53.5t51.5 -35.5t64.5 -24t79 -10.5z" />
    <glyph glyph-name="parenright" unicode=")" horiz-adv-x="687" 
d="M-18 -227q44 3 79 10.5t64.5 24t51.5 35.5t39.5 53.5t29.5 68.5t21 89.5t14 108t7.5 133.5t3.5 156t1 184q0 110 -1 185t-3.5 156t-7.5 134t-14 108.5t-21 89.5t-29.5 68t-39.5 53t-51.5 35.5t-64.5 24t-79 10.5v81q34 8 92 8q239 0 332.5 -218.5t93.5 -734.5
q0 -513 -93.5 -731t-332.5 -218q-71 0 -92 5v81z" />
    <glyph glyph-name="asterisk" unicode="*" horiz-adv-x="865" 
d="M42 1320l54 171q193 -70 276 -118q-22 217 -24 299h173q-4 -111 -26 -296q117 59 281 115l54 -171q-152 -50 -297 -66q72 -63 206 -226l-144 -103q-67 94 -165 257q-89 -172 -154 -257l-141 103q138 171 198 226q-155 28 -291 66z" />
    <glyph glyph-name="plus" unicode="+" horiz-adv-x="776" 
d="M734 713v-149h-279v-276h-149v276h-264v149h264v282h149v-282h279z" />
    <glyph glyph-name="comma" unicode="," horiz-adv-x="357" 
d="M49 -308l73 524h182v-185l-147 -339h-108z" />
    <glyph glyph-name="hyphen" unicode="-" horiz-adv-x="715" 
d="M82 720h558v-167h-558v167z" />
    <glyph glyph-name="period" unicode="." horiz-adv-x="443" 
d="M358 0h-263v266h263v-266z" />
    <glyph glyph-name="slash" unicode="/" horiz-adv-x="555" 
d="M45 -313h-145l622 1899h146z" />
    <glyph glyph-name="zero" unicode="0" horiz-adv-x="866" 
d="M428 1280q324 0 324 -293v-703q0 -148 -84 -220.5t-240 -72.5t-238.5 72.5t-82.5 220.5v703q0 148 82.5 220.5t238.5 72.5zM539 268v735q0 53 -28 81.5t-83 28.5q-110 0 -110 -110v-735q0 -51 29 -80.5t81 -29.5q111 0 111 110z" />
    <glyph glyph-name="one" unicode="1" horiz-adv-x="591" 
d="M68 908v148q60 -1 106 21t68.5 53t37 62.5t17.5 53.5l3 22h154v-1268h-211v908h-175z" />
    <glyph glyph-name="two" unicode="2" horiz-adv-x="788" 
d="M351 166h352v-166h-664q121 225 269 504t186 349q57 107 32 185.5t-115 78.5q-51 0 -84.5 -18.5t-48 -53.5t-19 -70t-2.5 -82h-202q-11 181 76.5 281t279.5 100q110 0 186 -41.5t107.5 -113t20 -171t-69.5 -210.5q-41 -78 -116 -217t-127 -236.5t-61 -118.5z" />
    <glyph glyph-name="three" unicode="3" horiz-adv-x="752" 
d="M277 600v129q203 0 203 191q0 65 -9 107t-27.5 60.5t-35.5 24t-42 5.5q-114 0 -114 -199h-188q0 182 70 270t232 88q70 0 122 -14.5t95 -49t66.5 -98.5t25.5 -157q2 -129 -46.5 -202t-156.5 -93q210 -36 210 -314q0 -180 -82.5 -266.5t-233.5 -86.5q-161 0 -233.5 97.5
t-72.5 286.5h193q1 -118 26.5 -170.5t86.5 -52.5q59 0 88 46t29 158t-56.5 175t-149.5 65z" />
    <glyph glyph-name="four" unicode="4" horiz-adv-x="820" 
d="M674 447h101v-165h-101v-282h-191v282h-476l364 986h221l-303 -821h194v249h191v-249z" />
    <glyph glyph-name="five" unicode="5" horiz-adv-x="769" 
d="M545 874q166 -67 166 -446q0 -202 -89.5 -319t-245.5 -117q-283 0 -283 375h184q4 -102 30 -157.5t85 -55.5q63 0 88.5 71t25.5 226q0 271 -114 288q-40 6 -82.5 -23.5t-45.5 -81.5h-171v634h585v-166h-388v-277q23 30 56.5 48t85.5 23t113 -22z" />
    <glyph glyph-name="six" unicode="6" horiz-adv-x="788" 
d="M492 669q101 -16 171.5 -106.5t70.5 -226.5q0 -147 -101.5 -244t-247.5 -97q-149 0 -247.5 88.5t-98.5 234.5q0 158 97 338q30 59 114.5 212t153.5 276l69 124h222l-354 -617q65 32 151 18zM385 151q74 0 117 50t43 142q0 86 -43.5 138t-116.5 52q-72 0 -116.5 -54.5
t-44.5 -135.5q0 -92 43.5 -142t117.5 -50z" />
    <glyph glyph-name="seven" unicode="7" horiz-adv-x="683" 
d="M334 0h-219l303 1102h-380v166h632z" />
    <glyph glyph-name="eight" unicode="8" horiz-adv-x="857" 
d="M575 675q106 -28 162.5 -115.5t56.5 -221.5q0 -164 -99.5 -253.5t-268.5 -89.5t-268 89.5t-99 253.5q0 134 60.5 226t161.5 111q-80 32 -128 103t-48 179q0 161 82.5 239.5t238.5 78.5q321 0 321 -318q0 -110 -50 -181t-122 -101zM421 1117q-70 0 -101 -43.5t-31 -128.5
t36 -139t96 -54q61 0 97.5 53.5t36.5 139.5t-31.5 129t-102.5 43zM421 153q85 0 129 46.5t44 162.5q0 105 -44.5 168t-128.5 63q-83 0 -125.5 -62.5t-42.5 -168.5q0 -117 42 -163t126 -46z" />
    <glyph glyph-name="nine" unicode="9" horiz-adv-x="825" 
d="M310 599q-109 17 -175.5 101.5t-66.5 231.5t101.5 244.5t247.5 97.5q149 0 247.5 -89t98.5 -235q0 -158 -97 -338q-30 -59 -113 -212t-151 -276l-67 -124h-224l343 614q-21 -12 -65.5 -16t-78.5 1zM417 1114q-74 0 -117 -48.5t-43 -140.5q0 -85 43 -133t117 -48
q72 0 116.5 50.5t44.5 130.5q0 92 -43 140.5t-118 48.5z" />
    <glyph glyph-name="colon" unicode=":" horiz-adv-x="504" 
d="M383 709h-263v266h263v-266zM386 0h-263v266h263v-266z" />
    <glyph glyph-name="semicolon" unicode=";" horiz-adv-x="524" 
d="M175 -308h-108l73 524h182v-185zM395 709h-263v266h263v-266z" />
    <glyph glyph-name="less" unicode="&#x3c;" horiz-adv-x="646" 
d="M65 564v130l499 377v-209l-355 -224l355 -235v-204z" />
    <glyph glyph-name="equal" unicode="=" horiz-adv-x="654" 
d="M73 509h522v-162h-522v162zM73 921h522v-159h-522v159z" />
    <glyph glyph-name="greater" unicode="&#x3e;" horiz-adv-x="639" 
d="M559 694v-130l-499 -365v204l355 235l-355 224v209z" />
    <glyph glyph-name="question" unicode="?" horiz-adv-x="747" 
d="M384 1280q91 0 153 -22.5t96.5 -68t49 -104t14.5 -140.5q0 -64 -12 -114.5t-31 -82t-41.5 -56.5t-45.5 -44.5t-42 -39.5t-31 -48.5t-12 -64.5v-116h-205l-1 116q0 68 22 116.5t53 77.5t62.5 58.5t53.5 78.5t22 118q0 107 -22.5 147t-82.5 40q-57 0 -85.5 -52t-28.5 -147
v-42h-207v56q0 95 24 162t69 103.5t100 52.5t128 16zM274 0h210v236h-210v-236z" />
    <glyph glyph-name="bracketleft" unicode="[" horiz-adv-x="537" 
d="M553 1454h-172v-1632h172v-135h-362v1899h362v-132z" />
    <glyph glyph-name="backslash" unicode="\" horiz-adv-x="559" 
d="M507 -313l-623 1899h146l622 -1899h-145z" />
    <glyph glyph-name="bracketright" unicode="]" horiz-adv-x="537" 
d="M-22 1454v132h362v-1899h-362v135h172v1632h-172z" />
    <glyph glyph-name="asciicircum" unicode="^" horiz-adv-x="982" 
d="M428 1268h130l377 -499h-186l-253 355l-244 -355h-189z" />
    <glyph glyph-name="underscore" unicode="_" horiz-adv-x="813" 
d="M-1 166h814v-166h-814v166z" />
    <glyph glyph-name="grave" unicode="`" horiz-adv-x="394" 
d="M79 908l66 531h171v-156l-145 -375h-92z" />
    <glyph glyph-name="braceleft" unicode="{" horiz-adv-x="577" 
d="M435 862q0 -77 -48.5 -143.5t-145.5 -82.5q66 -10 111.5 -48.5t64 -83.5t18.5 -93v-257v-37q0 -61 0.5 -90.5t4.5 -76t12.5 -69t25 -52.5t41 -43.5t61.5 -25t86 -14.5v-64q-31 -7 -86 -7q-159 0 -242 108.5t-83 351.5v298q0 3 0.5 9t-0.5 23t-5 32t-14 34t-25 32.5
t-41.5 22.5t-59.5 9v83q33 0 59.5 9t41.5 23t25 31t13.5 34.5t5 31.5t1.5 23l-1 9v299q0 243 83 351.5t242 108.5q55 0 86 -7v-64q-35 -2 -63 -7.5t-50 -15t-39.5 -22t-29.5 -28.5t-21 -35t-14 -41t-8.5 -47t-4.5 -53t-1 -58.5v-63.5v-37v-257z" />
    <glyph glyph-name="bar" unicode="|" horiz-adv-x="472" 
d="M300 1649v-2049h-115v2049h115z" />
    <glyph glyph-name="braceright" unicode="}" horiz-adv-x="573" 
d="M172 862v257v37q0 61 -0.5 90.5t-4.5 76t-12.5 69t-25 52.5t-41 43.5t-61.5 25t-86 14.5v64q31 7 86 7q159 0 242 -108.5t83 -351.5v-299q0 -3 -0.5 -9t0.5 -22.5t5 -32t14 -34t25 -32t41.5 -22.5t59.5 -9v-83q-33 0 -59.5 -9t-41.5 -23t-25 -31.5t-13.5 -35t-5 -31.5
t-0.5 -23v-9v-298q0 -243 -83 -351.5t-242 -108.5q-55 0 -86 7v64q35 2 63 7.5t50 15t39.5 22t29.5 28.5t21 35t14 41t8.5 47t4.5 53t1 58.5v63.5v37v257q0 48 18.5 93t64 83.5t111.5 48.5q-97 16 -145.5 82.5t-48.5 143.5z" />
    <glyph glyph-name="asciitilde" unicode="~" horiz-adv-x="852" 
d="M82 513v167q29 29 47 45t46 36.5t57 29.5t61 9q38 0 70.5 -16.5t56 -40t45.5 -47t49 -40t56 -16.5q19 0 39.5 6t36 13.5t37 22.5t32.5 24t34.5 28.5t30.5 25.5v-167q-28 -29 -45 -45t-43.5 -36.5t-54.5 -29.5t-59 -9q-38 0 -72 16.5t-59 40t-49 47t-52.5 40t-58.5 16.5
q-19 0 -39.5 -6.5t-34.5 -12.5t-37.5 -23.5t-31 -23.5t-33.5 -29t-29 -25z" />
    <glyph glyph-name="guillemotleft" unicode="&#xab;" horiz-adv-x="613" 
d="M67 914l58 524h151v-154l-128 -370h-81zM348 914l58 524h152v-154l-129 -370h-81z" />
    <glyph glyph-name="degree" unicode="&#xb0;" horiz-adv-x="497" 
d="M242 1278q107 0 161.5 -57.5t54.5 -149.5q0 -91 -55 -148.5t-161 -57.5q-105 0 -155.5 57t-50.5 149q0 93 50.5 150t155.5 57zM358 1067q0 131 -116 131q-107 0 -107 -131q0 -58 28.5 -91.5t78.5 -33.5q54 0 85 32.5t31 92.5z" />
    <glyph glyph-name="middot" unicode="&#xb7;" horiz-adv-x="467" 
d="M370 505h-263v266h263v-266z" />
    <glyph glyph-name="guillemotright" unicode="&#xbb;" horiz-adv-x="613" 
d="M67 914l58 524h151v-154l-128 -370h-81zM348 914l58 524h151v-154l-128 -370h-81z" />
    <glyph glyph-name="sheva" unicode="&#x5b0;" 
d="M-70 -274q0 29 20.5 49.5t49.5 20.5t49.5 -20.5t20.5 -49.5t-20.5 -49.5t-49.5 -20.5t-49.5 20.5t-20.5 49.5zM-70 -475q0 29 20.5 49.5t49.5 20.5t49.5 -20.5t20.5 -49.5t-20.5 -49.5t-49.5 -20.5t-49.5 20.5t-20.5 49.5z" />
    <glyph glyph-name="hatafsegol" unicode="&#x5b1;" 
d="M-320 -275q0 29 20.5 49.5t49.5 20.5t49.5 -20.5t20.5 -49.5t-20.5 -49.5t-49.5 -20.5t-49.5 20.5t-20.5 49.5zM-214 -453q0 29 20.5 49.5t49.5 20.5t49.5 -20.5t20.5 -49.5t-20.5 -49.5t-49.5 -20.5t-49.5 20.5t-20.5 49.5zM-110 -275q0 29 20.5 49.5t49.5 20.5
t49.5 -20.5t20.5 -49.5t-20.5 -49.5t-49.5 -20.5t-49.5 20.5t-20.5 49.5zM103 -274q0 29 20.5 49.5t49.5 20.5t49.5 -20.5t20.5 -49.5t-20.5 -49.5t-49.5 -20.5t-49.5 20.5t-20.5 49.5zM103 -475q0 29 20.5 49.5t49.5 20.5t49.5 -20.5t20.5 -49.5t-20.5 -49.5t-49.5 -20.5
t-49.5 20.5t-20.5 49.5z" />
    <glyph glyph-name="hatafpatah" unicode="&#x5b2;" 
d="M-316 -311h318v95h-318v-95zM103 -274q0 29 20.5 49.5t49.5 20.5t49.5 -20.5t20.5 -49.5t-20.5 -49.5t-49.5 -20.5t-49.5 20.5t-20.5 49.5zM103 -475q0 29 20.5 49.5t49.5 20.5t49.5 -20.5t20.5 -49.5t-20.5 -49.5t-49.5 -20.5t-49.5 20.5t-20.5 49.5z" />
    <glyph glyph-name="hatafqamats" unicode="&#x5b3;" 
d="M103 -274q0 29 20.5 49.5t49.5 20.5t49.5 -20.5t20.5 -49.5t-20.5 -49.5t-49.5 -20.5t-49.5 20.5t-20.5 49.5zM103 -475q0 29 20.5 49.5t49.5 20.5t49.5 -20.5t20.5 -49.5t-20.5 -49.5t-49.5 -20.5t-49.5 20.5t-20.5 49.5zM-222 -486l68 -50l68 50l-39 188h127v82h-312
v-82h127z" />
    <glyph glyph-name="hiriq" unicode="&#x5b4;" 
d="M-70 -275q0 29 20.5 49.5t49.5 20.5t49.5 -20.5t20.5 -49.5t-20.5 -49.5t-49.5 -20.5t-49.5 20.5t-20.5 49.5z" />
    <glyph glyph-name="tsere" unicode="&#x5b5;" 
d="M-176 -275q0 29 20.5 49.5t49.5 20.5t49.5 -20.5t20.5 -49.5t-20.5 -49.5t-49.5 -20.5t-49.5 20.5t-20.5 49.5zM34 -275q0 29 20.5 49.5t49.5 20.5t49.5 -20.5t20.5 -49.5t-20.5 -49.5t-49.5 -20.5t-49.5 20.5t-20.5 49.5z" />
    <glyph glyph-name="segol" unicode="&#x5b6;" 
d="M-176 -275q0 29 20.5 49.5t49.5 20.5t49.5 -20.5t20.5 -49.5t-20.5 -49.5t-49.5 -20.5t-49.5 20.5t-20.5 49.5zM-70 -453q0 29 20.5 49.5t49.5 20.5t49.5 -20.5t20.5 -49.5t-20.5 -49.5t-49.5 -20.5t-49.5 20.5t-20.5 49.5zM34 -275q0 29 20.5 49.5t49.5 20.5t49.5 -20.5
t20.5 -49.5t-20.5 -49.5t-49.5 -20.5t-49.5 20.5t-20.5 49.5z" />
    <glyph glyph-name="patah" unicode="&#x5b7;" 
d="M649 -311h-318v95h318v-95z" />
    <glyph glyph-name="qamats" unicode="&#x5b8;" 
d="M0 -536l-68 50l39 188h-127v82h312v-82h-127l39 -188z" />
    <glyph glyph-name="holam" unicode="&#x5b9;" 
d="M-70 1497q0 29 20.5 49.5t49.5 20.5t49.5 -20.5t20.5 -49.5t-20.5 -49.5t-49.5 -20.5t-49.5 20.5t-20.5 49.5z" />
    <glyph glyph-name="qubuts" unicode="&#x5bb;" 
d="M-81 -389q0 29 20.5 49.5t49.5 20.5t49.5 -20.5t20.5 -49.5t-20.5 -49.5t-49.5 -20.5t-49.5 20.5t-20.5 49.5zM-225 -272q0 29 20.5 49.5t49.5 20.5t49.5 -20.5t20.5 -49.5t-20.5 -49.5t-49.5 -20.5t-49.5 20.5t-20.5 49.5zM57 -509q0 29 20.5 49.5t49.5 20.5t49.5 -20.5
t20.5 -49.5t-20.5 -49.5t-49.5 -20.5t-49.5 20.5t-20.5 49.5z" />
    <glyph glyph-name="dagesh" unicode="&#x5bc;" 
d="M0 772q26 0 48.5 -19.5t22.5 -50.5q0 -30 -20.5 -51t-50.5 -21q-29 0 -50 20.5t-21 51.5q0 28 19 49t52 21z" />
    <glyph glyph-name="meteg" unicode="&#x5bd;" 
d="M-42 -533v318h86v-318h-86z" />
    <glyph glyph-name="maqaf" unicode="&#x5be;" horiz-adv-x="558" 
d="M50 1268h458v-166h-458v166z" />
    <glyph glyph-name="paseq" unicode="&#x5c0;" 
d="M81 0h-162v1268h162v-1268z" />
    <glyph glyph-name="shindot" unicode="&#x5c1;" 
d="M-70 1497q0 29 20.5 49.5t49.5 20.5t49.5 -20.5t20.5 -49.5t-20.5 -49.5t-49.5 -20.5t-49.5 20.5t-20.5 49.5z" />
    <glyph glyph-name="sindot" unicode="&#x5c2;" 
d="M-70 1497q0 29 20.5 49.5t49.5 20.5t49.5 -20.5t20.5 -49.5t-20.5 -49.5t-49.5 -20.5t-49.5 20.5t-20.5 49.5z" />
    <glyph glyph-name="alef" unicode="&#x5d0;" horiz-adv-x="1014" 
d="M912 0h-212l-336 717q-29 -8 -40.5 -37.5t-11.5 -91.5v-588h-208v537q0 133 42 215t151 108l-195 408h207l302 -633q49 16 71 52.5t22 125.5v455h210v-422q0 -148 -49 -228t-186 -128z" />
    <glyph glyph-name="bet" unicode="&#x5d1;" horiz-adv-x="748" 
d="M722 166v-166h-674v166h329v936h-323v166h533v-1102h135z" />
    <glyph glyph-name="gimel" unicode="&#x5d2;" horiz-adv-x="615" 
d="M431 1268l143 -1268h-202l-27 267q-25 -119 -98.5 -193t-184.5 -74h-49v202h54q278 0 233 427l-54 473h-138v166h323z" />
    <glyph glyph-name="dalet" unicode="&#x5d3;" horiz-adv-x="786" 
d="M382 0v1102h-358v166h690v-166h-120v-1102h-212z" />
    <glyph glyph-name="he" unicode="&#x5d4;" horiz-adv-x="917" 
d="M423 1102h-293v166h306q108 0 173.5 -19.5t106.5 -71.5t55.5 -133t14.5 -214v-830h-211v844q0 109 -17.5 166t-48 74.5t-86.5 17.5zM126 0v783h213v-783h-213z" />
    <glyph glyph-name="vav" unicode="&#x5d5;" horiz-adv-x="483" 
d="M137 1268h210v-1268h-210v1268z" />
    <glyph glyph-name="zayin" unicode="&#x5d6;" horiz-adv-x="678" 
d="M315 0q-60 296 -104 514q-20 101 -29 178.5t-7 159t27 145t74 105.5h-241v166h579v-166h-173q-36 -50 -52.5 -109.5t-13 -138.5t13.5 -144.5t32 -176.5l110 -533h-216z" />
    <glyph glyph-name="het" unicode="&#x5d7;" horiz-adv-x="964" 
d="M137 1268h348q72 0 128.5 -14t95.5 -37.5t66.5 -63.5t43 -81t24 -103t11 -116.5t2.5 -132.5v-720h-211v776q0 153 -11 203q-20 95 -100 116q-27 7 -62 7h-125v-1102h-210v1268z" />
    <glyph glyph-name="tet" unicode="&#x5d8;" horiz-adv-x="950" 
d="M830 1268v-842q0 -216 -104 -321t-334 -105h-215l-100 1268h214l89 -1102h29q125 0 167.5 62t42.5 235v639h-119v166h330z" />
    <glyph glyph-name="yod" unicode="&#x5d9;" horiz-adv-x="442" 
d="M113 1268h216v-668h-216v668z" />
    <glyph glyph-name="finalkaf" unicode="&#x5da;" horiz-adv-x="712" 
d="M595 1268v-1579h-216v1413h-344v166h560z" />
    <glyph glyph-name="kaf" unicode="&#x5db;" horiz-adv-x="696" 
d="M68 1268h165q212 0 302.5 -107t90.5 -363v-330q0 -256 -90.5 -362t-302.5 -106h-162v166h172q60 0 95 22t55.5 88.5t20.5 188.5v336q0 121 -20.5 188.5t-55.5 90t-95 22.5h-175v166z" />
    <glyph glyph-name="lamed" unicode="&#x5dc;" horiz-adv-x="732" 
d="M683 1268l-279 -1268h-209l239 1102h-361v426h191v-260h419z" />
    <glyph glyph-name="finalmem" unicode="&#x5dd;" horiz-adv-x="904" 
d="M788 896v-896h-661v1268h337q72 0 120 -8t89.5 -31t65 -64.5t36.5 -107.5t13 -161zM580 166v722q0 128 -29.5 171t-108.5 43h-107v-936h245z" />
    <glyph glyph-name="mem" unicode="&#x5de;" horiz-adv-x="918" 
d="M453 0v166h161v708q0 228 -161 228h-41l-129 -1102h-213l134 1102h-116v166h363q143 0 222 -50t113.5 -165.5t33.5 -325.5v-727h-367z" />
    <glyph glyph-name="finalnun" unicode="&#x5df;" horiz-adv-x="497" 
d="M137 1268h216v-1579h-216v1579z" />
    <glyph glyph-name="nun" unicode="&#x5e0;" horiz-adv-x="615" 
d="M59 166h93q26 0 45.5 5t32.5 11t22 22t13.5 28t6.5 39t2.5 44t0.5 54v733h-144v166h355v-941q0 -175 -59 -251t-209 -76h-159v166z" />
    <glyph glyph-name="samekh" unicode="&#x5e1;" horiz-adv-x="935" 
d="M69 1268h755v-825q-2 -218 -109.5 -330.5t-335.5 -112.5h-205zM617 480v623h-324l76 -937h32q125 0 170.5 70.5t45.5 243.5z" />
    <glyph glyph-name="ayin" unicode="&#x5e2;" horiz-adv-x="894" 
d="M571 1268h210v-668q0 -89 -2 -138t-10 -109.5t-25.5 -93.5t-46.5 -73t-76 -66t-110.5 -53.5t-152.5 -53.5l-287 -84l-43 160l178 52l-114 1127h213l103 -1068q116 37 139.5 91.5t23.5 230.5v746z" />
    <glyph glyph-name="finalpe" unicode="&#x5e3;" horiz-adv-x="867" 
d="M771 813v-1124h-214v1126q0 93 -9.5 151t-33 87.5t-52 39t-76.5 9.5h-70v-546h-211v712h267q217 0 308 -100t91 -355z" />
    <glyph glyph-name="pe" unicode="&#x5e4;" horiz-adv-x="867" 
d="M101 1268h275q211 0 302.5 -111.5t91.5 -368.5v-310q0 -257 -91.5 -367.5t-302.5 -110.5h-275v166h285q44 0 74 12t53.5 43.5t34.5 91.5t11 152v339q0 91 -11 151t-34.5 91.5t-53.5 43.5t-74 12h-75v-493h-210v659z" />
    <glyph glyph-name="finaltsadi" unicode="&#x5e5;" horiz-adv-x="847" 
d="M560 1268h209v-436q0 -209 -89.5 -306.5t-306.5 -107.5l100 -729h-218l-196 1579h211l85 -687q52 1 87 10t63.5 32.5t41.5 67.5t13 112v465z" />
    <glyph glyph-name="tsadi" unicode="&#x5e6;" horiz-adv-x="925" 
d="M110 0v166h414l-480 1102h225l258 -597q50 4 69.5 32.5t19.5 122.5v442h212v-389q0 -170 -57 -251t-188 -98l239 -530h-712z" />
    <glyph glyph-name="qof" unicode="&#x5e7;" horiz-adv-x="925" 
d="M115 -311v1119h210v-1119h-210zM115 1268h679v-825q0 -93 -4.5 -155.5t-17.5 -115t-34 -83t-56.5 -52t-83 -29.5t-115.5 -8h-49v165h44q57 0 80 41t23 161v735h-466v166z" />
    <glyph glyph-name="resh" unicode="&#x5e8;" horiz-adv-x="732" 
d="M34 1268h231q71 0 125.5 -12.5t93 -33t65.5 -57.5t42.5 -75.5t24 -97t11 -112t2.5 -130.5v-750h-212v774q0 62 -3.5 106.5t-13.5 88.5t-28 71.5t-48.5 44.5t-73.5 17h-216v166z" />
    <glyph glyph-name="shin" unicode="&#x5e9;" horiz-adv-x="1127" 
d="M808 1268h207v-688q0 -136 -22.5 -238t-62 -166.5t-99.5 -104.5t-127.5 -55.5t-154.5 -15.5h-373l-100 1268h210l84 -1102h138q46 0 79 4t70 16t62 36.5t46.5 63t32 98.5t10.5 140v744zM669 1268v-831h-211v831h211z" />
    <glyph glyph-name="tav" unicode="&#x5ea;" horiz-adv-x="956" 
d="M110 1268h360q73 0 130 -14t96.5 -37.5t67 -64t43 -81t24 -102.5t11 -116t2.5 -133v-720h-210v779q0 159 -13 213q-23 90 -103 106q-19 4 -43 4h-73v-1102h-376v166h166v936h-82v166z" />
    <glyph glyph-name="geresh" unicode="&#x5f3;" horiz-adv-x="394" 
d="M74 908l66 531h171v-156l-145 -375h-92z" />
    <glyph glyph-name="gershayim" unicode="&#x5f4;" horiz-adv-x="617" 
d="M84 915l59 525h152v-154l-129 -371h-82zM338 915l59 525h152v-154l-129 -371h-82z" />
    <glyph glyph-name="endash" unicode="&#x2013;" horiz-adv-x="1065" 
d="M73 704h919v-129h-919v129z" />
    <glyph glyph-name="emdash" unicode="&#x2014;" horiz-adv-x="1740" 
d="M26 690h1691v-106h-1691v106z" />
    <glyph glyph-name="quoteleft" unicode="&#x2018;" horiz-adv-x="402" 
d="M79 908l66 531h171v-156l-145 -375h-92z" />
    <glyph glyph-name="quoteright" unicode="&#x2019;" horiz-adv-x="387" 
d="M79 908l66 531h171v-156l-145 -375h-92z" />
    <glyph glyph-name="quotesinglbase" unicode="&#x201a;" horiz-adv-x="394" 
d="M79 908l66 531h171v-156l-145 -375h-92z" />
    <glyph glyph-name="quotedblleft" unicode="&#x201c;" horiz-adv-x="613" 
d="M67 914l58 524h151v-154l-128 -370h-81zM348 914l58 524h151v-154l-128 -370h-81z" />
    <glyph glyph-name="quotedblright" unicode="&#x201d;" horiz-adv-x="617" 
d="M67 914l58 524h151v-154l-128 -370h-81zM348 914l58 524h151v-154l-128 -370h-81z" />
    <glyph glyph-name="quotedblbase" unicode="&#x201e;" horiz-adv-x="613" 
d="M67 914l58 524h151v-154l-128 -370h-81zM348 914l58 524h151v-154l-128 -370h-81z" />
    <glyph glyph-name="ellipsis" unicode="&#x2026;" horiz-adv-x="1383" 
d="M372 0h-263v266h263v-266zM816 0h-263v266h263v-266zM1259 0h-263v266h263v-266z" />
    <glyph glyph-name="newsheqelsign" unicode="&#x20aa;" horiz-adv-x="1302" 
d="M924 691v-310h-211v295q0 53 -4 83t-18.5 56t-43 36t-75.5 10h-254v-861h-210v1027h499q166 0 241.5 -91t75.5 -245zM875 0h-459v646h211v-480h201q105 0 142.5 36t37.5 138v687h208v-691q0 -168 -87.5 -252t-253.5 -84z" />
    <glyph glyph-name="eruo" unicode="&#x20ac;" horiz-adv-x="864" 
d="M780 972h-155q0 164 -142 164q-60 0 -94.5 -23t-54.5 -90.5t-20 -189.5v-47h290v-113h-290v-80h290v-113h-290v-43q0 -171 40.5 -238t128.5 -67q78 0 109.5 41t31.5 123h157q0 -296 -288 -296q-106 0 -174 24.5t-108 83t-55.5 143.5t-15.5 219v10h-92v113h92v80h-92v113
h92v14q0 128 15.5 212t55.5 144t108.5 86t173.5 26q79 0 138 -28.5t90 -74.5t45 -94.5t14 -98.5z" />
    <glyph glyph-name="arrowleft" unicode="&#x2190;" horiz-adv-x="2448" 
d="M458 988h137l-316 -299h2049v-98h-2049l319 -297h-140l-362 341z" />
    <glyph glyph-name="arrowright" unicode="&#x2192;" horiz-adv-x="2448" 
d="M1816 988h137l362 -353l-362 -341h-140l319 297h-2049v98h2049z" />
    <glyph glyph-name="minus" unicode="&#x2212;" horiz-adv-x="703" 
d="M70 720h558v-167h-558v167z" />
    <glyph glyph-name="heart" unicode="&#x2665;" horiz-adv-x="1044" 
d="M504 146l-267 327q-4 5 -24.5 29.5t-26.5 32t-23.5 29.5t-24.5 33t-20.5 31.5t-20 35.5t-14.5 34.5t-13 38.5q-20 78 13 143.5t100.5 96t143.5 15.5q61 -13 105.5 -56t70.5 -105q27 60 63.5 98.5t92.5 57.5q80 27 161.5 -9.5t108.5 -115.5q13 -36 6 -98q-5 -48 -33 -104
t-47.5 -82t-67.5 -87zM159 603q3 -6 8 -11h673q6 9 7 11h-688zM185 568q1 -1 3.5 -5t4.5 -6h621q1 1 2.5 3t3 4.5t2.5 3.5h-637zM118 671q0 -1 2 -4t2 -5h761q1 2 2 5t2 4h-769zM252 487h506l10 13h-527q3 -5 11 -13zM137 636q1 -1 2.5 -4l2.5 -5h721l2.5 5t2.5 4h-731z
M212 534q6 -8 9 -11h566q1 2 4 5.5t5 5.5h-584zM297 432l12 -15h391l13 15h-416zM270 465l10 -13h449l11 13h-470zM92 739q0 -2 0.5 -4t0.5 -3h816q1 1 1.5 3.5t0.5 3.5h-819zM102 705q1 -3 3 -7h793q2 4 3 7h-799zM325 397l12 -15h334l13 15h-359zM352 363l13 -16h278
l13 16h-304zM917 768v5h-832q0 -1 1 -3v-2h831zM380 329l14 -17h220l14 17h-248zM408 294l14 -17h164l14 17h-192zM435 261l16 -19h106l16 19h-138zM85 807v-5h408q0 1 -2 5h-406zM514 807q-2 -4 -2 -5h407v5h-405zM529 842q0 -1 -0.5 -2.5t-1.5 -2.5h389q0 1 -1 2.5t-1 2.5
h-385zM477 837q-1 1 -1 2t-0.5 1.5t-0.5 1.5h-384q0 -1 -1 -3v-2h387zM464 226l15 -19h50l15 19h-80zM549 876q-2 -2 -2 -3h356l-1 1q0 2 -1 2h-352zM105 876l-1 -1v-2h353q0 1 -2 3h-350zM881 907l-3 3h-304l-3 -3h310zM129 910q-1 0 -1 -1t-1 -2h305q0 1 -1 1l-1 2h-301z
M613 944q-1 -1 -2 -1h229q-1 0 -1 1h-226zM168 944l-1 -1h225q-1 0 -1 1h-223zM492 192l12 -15l12 15h-24z" />
    <glyph glyph-name="finalkafsheva" unicode="&#xe802;" horiz-adv-x="712" 
d="M595 1268v-1579h-216v1413h-344v166h560zM93 628q0 29 20.5 49.5t49.5 20.5t49.5 -20.5t20.5 -49.5t-20.5 -49.5t-49.5 -20.5t-49.5 20.5t-20.5 49.5zM93 427q0 29 20.5 49.5t49.5 20.5t49.5 -20.5t20.5 -49.5t-20.5 -49.5t-49.5 -20.5t-49.5 20.5t-20.5 49.5z" />
    <glyph glyph-name="finalkafqamats" unicode="&#xe803;" horiz-adv-x="708" 
d="M88 397l68 -50l68 50l-39 188h97v82h-252v-82h97zM595 1268v-1579h-216v1413h-344v166h560z" />
    <glyph glyph-name="lamedholam" unicode="&#xe804;" horiz-adv-x="731" 
d="M683 1268l-279 -1268h-209l239 1102h-361v426h191v-260h419zM-170 1497q0 29 20.5 49.5t49.5 20.5t49.5 -20.5t20.5 -49.5t-20.5 -49.5t-49.5 -20.5t-49.5 20.5t-20.5 49.5z" />
    <glyph glyph-name="lamedholamdagesh" unicode="&#xe805;" horiz-adv-x="731" 
d="M683 1268l-279 -1268h-209l239 1102h-361v426h191v-260h419zM-170 1497q0 29 20.5 49.5t49.5 20.5t49.5 -20.5t20.5 -49.5t-20.5 -49.5t-49.5 -20.5t-49.5 20.5t-20.5 49.5zM160 854q26 0 48.5 -19.5t22.5 -50.5q0 -30 -20.5 -51t-50.5 -21q-29 0 -50 20.5t-21 51.5
q0 28 19 49t52 21z" />
    <glyph glyph-name="alefalefalef" unicode="&#xf8ff;" horiz-adv-x="3004" 
d="M44 140v942h942v-942h-942zM558 629h-5q-1 8 -8 18t-22 27t-21 24l-235 259h-49v-53l151 -152q-39 -16 -62.5 -41t-42.5 -62q-36 -79 44 -203q31 -51 10 -101h-120q-7 -7 -8.5 -25.5t8.5 -40.5h164q36 83 32.5 124t-53.5 138q-12 27 -13.5 58.5t21.5 62t65 41.5l379 -446
h44l2 49q-176 208 -196 231q-26 29 -28 56.5t11 48.5q34 63 85.5 125.5t89.5 62.5h33v37q0 10 -1.5 16t-9 11t-22.5 5h-126l-24 58h-44l-7 -114q26 -11 85 -11q-67 -83 -97 -129.5t-30 -73.5zM1035 140v942h943v-942h-943zM1547 629h-3q-1 5 -4 11t-9 13.5t-11 13t-13.5 16
t-13.5 15.5l-234 259h-49v-53l151 -152q-39 -16 -62 -40.5t-44 -62.5q-38 -77 44 -203q31 -53 11 -101h-123q-6 -6 -7 -25.5t7 -40.5h166q35 81 31 123.5t-55 138.5q-10 19 -11.5 43t6 47.5t29 43.5t52.5 28l380 -446h44v49q-177 208 -196 231q-27 30 -28.5 57t13.5 48
q33 63 84 125.5t90 62.5h32v37q0 11 -1 16t-8.5 10.5t-22.5 5.5h-125l-25 58h-44l-9 -114q29 -11 88 -11q-130 -155 -130 -203zM2032 140v942h942v-942h-942zM2546 629h-5q-2 8 -9.5 18.5t-20 25.5t-19.5 25l-238 259h-46v-53l152 -152q-68 -26 -108 -103q-36 -79 44 -203
q31 -51 10 -101h-120q-7 -7 -8.5 -25.5t8.5 -40.5h166q35 81 31 124t-58 138q-10 27 -10.5 58.5t22.5 62t64 41.5l379 -446h45l2 49q-176 208 -196 231q-26 29 -28 56.5t11 48.5q33 62 84.5 125t90.5 63h33v37q0 10 -1.5 16t-9 11t-22.5 5h-123l-24 58h-45l-9 -114
q26 -11 85 -11q-67 -83 -97 -129.5t-30 -73.5z" />
    <glyph glyph-name="uniFB1D" unicode="&#xfb1d;" horiz-adv-x="442" 
d="M113 1268h216v-668h-216v668zM156 -275q0 29 20.5 49.5t49.5 20.5t49.5 -20.5t20.5 -49.5t-20.5 -49.5t-49.5 -20.5t-49.5 20.5t-20.5 49.5z" />
    <glyph glyph-name="shinshindot" unicode="&#xfb2a;" horiz-adv-x="1131" 
d="M808 1268h207v-688q0 -136 -22.5 -238t-62 -166.5t-99.5 -104.5t-127.5 -55.5t-154.5 -15.5h-373l-100 1268h210l84 -1102h138q46 0 79 4t70 16t62 36.5t46.5 63t32 98.5t10.5 140v744zM669 1268v-831h-211v831h211zM832 1497q0 29 20.5 49.5t49.5 20.5t49.5 -20.5
t20.5 -49.5t-20.5 -49.5t-49.5 -20.5t-49.5 20.5t-20.5 49.5z" />
    <glyph glyph-name="shinsindot" unicode="&#xfb2b;" horiz-adv-x="1135" 
d="M104 1497q0 29 20.5 49.5t49.5 20.5t49.5 -20.5t20.5 -49.5t-20.5 -49.5t-49.5 -20.5t-49.5 20.5t-20.5 49.5zM808 1268h207v-688q0 -136 -22.5 -238t-62 -166.5t-99.5 -104.5t-127.5 -55.5t-154.5 -15.5h-373l-100 1268h210l84 -1102h138q46 0 79 4t70 16t62 36.5
t46.5 63t32 98.5t10.5 140v744zM669 1268v-831h-211v831h211z" />
    <glyph glyph-name="shindageshshindot" unicode="&#xfb2c;" horiz-adv-x="1135" 
d="M832 1497q0 29 20.5 49.5t49.5 20.5t49.5 -20.5t20.5 -49.5t-20.5 -49.5t-49.5 -20.5t-49.5 20.5t-20.5 49.5zM560 379q26 0 48.5 -19.5t22.5 -50.5q0 -30 -20.5 -51t-50.5 -21q-29 0 -50 20.5t-21 51.5q0 28 19 49t52 21zM808 1268h207v-688q0 -136 -22.5 -238
t-62 -166.5t-99.5 -104.5t-127.5 -55.5t-154.5 -15.5h-373l-100 1268h210l84 -1102h138q46 0 79 4t70 16t62 36.5t46.5 63t32 98.5t10.5 140v744zM669 1268v-831h-211v831h211z" />
    <glyph glyph-name="shindageshsindot" unicode="&#xfb2d;" horiz-adv-x="1131" 
d="M104 1497q0 29 20.5 49.5t49.5 20.5t49.5 -20.5t20.5 -49.5t-20.5 -49.5t-49.5 -20.5t-49.5 20.5t-20.5 49.5zM560 379q26 0 48.5 -19.5t22.5 -50.5q0 -30 -20.5 -51t-50.5 -21q-29 0 -50 20.5t-21 51.5q0 28 19 49t52 21zM808 1268h207v-688q0 -136 -22.5 -238
t-62 -166.5t-99.5 -104.5t-127.5 -55.5t-154.5 -15.5h-373l-100 1268h210l84 -1102h138q46 0 79 4t70 16t62 36.5t46.5 63t32 98.5t10.5 140v744zM669 1268v-831h-211v831h211z" />
    <glyph glyph-name="betdagesh" unicode="&#xfb31;" horiz-adv-x="748" 
d="M722 166v-166h-674v166h329v936h-323v166h533v-1102h135zM171 772q26 0 48.5 -19.5t22.5 -50.5q0 -30 -20.5 -51t-50.5 -21q-29 0 -50 20.5t-21 51.5q0 28 19 49t52 21z" />
    <glyph glyph-name="gimeldagesh" unicode="&#xfb32;" horiz-adv-x="615" 
d="M431 1268l143 -1268h-202l-27 267q-25 -119 -98.5 -193t-184.5 -74h-49v202h54q278 0 233 427l-54 473h-138v166h323zM108 728q26 0 48.5 -19.5t22.5 -50.5q0 -30 -20.5 -51t-50.5 -21q-29 0 -50 20.5t-21 51.5q0 28 19 49t52 21z" />
    <glyph glyph-name="daletdagesh" unicode="&#xfb33;" horiz-adv-x="786" 
d="M382 0v1102h-358v166h690v-166h-120v-1102h-212zM170 772q26 0 48.5 -19.5t22.5 -50.5q0 -30 -20.5 -51t-50.5 -21q-29 0 -50 20.5t-21 51.5q0 28 19 49t52 21z" />
    <glyph glyph-name="hedagesh" unicode="&#xfb34;" horiz-adv-x="917" 
d="M423 1102h-293v166h306q108 0 173.5 -19.5t106.5 -71.5t55.5 -133t14.5 -214v-830h-211v844q0 109 -17.5 166t-48 74.5t-86.5 17.5zM126 0v783h213v-783h-213zM415 987q26 0 48.5 -19.5t22.5 -50.5q0 -30 -20.5 -51t-50.5 -21q-29 0 -50 20.5t-21 51.5q0 28 19 49t52 21z
" />
    <glyph glyph-name="vavdagesh" unicode="&#xfb35;" horiz-adv-x="498" 
d="M152 1268h210v-1268h-210v1268zM7 772q26 0 48.5 -19.5t22.5 -50.5q0 -30 -20.5 -51t-50.5 -21q-29 0 -50 20.5t-21 51.5q0 28 19 49t52 21z" />
    <glyph glyph-name="zayindagesh" unicode="&#xfb36;" horiz-adv-x="678" 
d="M315 0q-60 296 -104 514q-20 101 -29 178.5t-7 159t27 145t74 105.5h-241v166h579v-166h-173q-36 -50 -52.5 -109.5t-13 -138.5t13.5 -144.5t32 -176.5l110 -533h-216zM37 523q26 0 48.5 -19.5t22.5 -50.5q0 -30 -20.5 -51t-50.5 -21q-29 0 -50 20.5t-21 51.5q0 28 19 49
t52 21z" />
    <glyph glyph-name="tetdagesh" unicode="&#xfb38;" horiz-adv-x="950" 
d="M830 1268v-842q0 -216 -104 -321t-334 -105h-215l-100 1268h214l89 -1102h29q125 0 167.5 62t42.5 235v639h-119v166h330zM473 817q26 0 48.5 -19.5t22.5 -50.5q0 -30 -20.5 -51t-50.5 -21q-29 0 -50 20.5t-21 51.5q0 28 19 49t52 21z" />
    <glyph glyph-name="yoddagesh" unicode="&#xfb39;" horiz-adv-x="483" 
d="M154 1268h216v-668h-216v668zM4 995q26 0 48.5 -19.5t22.5 -50.5q0 -30 -20.5 -51t-50.5 -21q-29 0 -50 20.5t-21 51.5q0 28 19 49t52 21z" />
    <glyph glyph-name="finalkafdagesh" unicode="&#xfb3a;" horiz-adv-x="712" 
d="M163 711q26 0 48.5 -19.5t22.5 -50.5q0 -30 -20.5 -51t-50.5 -21q-29 0 -50 20.5t-21 51.5q0 28 19 49t52 21zM595 1268v-1579h-216v1413h-344v166h560z" />
    <glyph glyph-name="kafdagesh" unicode="&#xfb3b;" horiz-adv-x="696" 
d="M68 1268h165q212 0 302.5 -107t90.5 -363v-330q0 -256 -90.5 -362t-302.5 -106h-162v166h172q60 0 95 22t55.5 88.5t20.5 188.5v336q0 121 -20.5 188.5t-55.5 90t-95 22.5h-175v166zM167 737q26 0 48.5 -19.5t22.5 -50.5q0 -30 -20.5 -51t-50.5 -21q-29 0 -50 20.5
t-21 51.5q0 28 19 49t52 21z" />
    <glyph glyph-name="lameddagesh" unicode="&#xfb3c;" horiz-adv-x="739" 
d="M688 1268l-279 -1268h-209l239 1102h-361v426h191v-260h419zM174 912q26 0 48.5 -19.5t22.5 -50.5q0 -30 -20.5 -51t-50.5 -21q-29 0 -50 20.5t-21 51.5q0 28 19 49t52 21z" />
    <glyph glyph-name="memdagesh" unicode="&#xfb3e;" horiz-adv-x="918" 
d="M453 0v166h161v708q0 228 -161 228h-41l-129 -1102h-213l134 1102h-116v166h363q143 0 222 -50t113.5 -165.5t33.5 -325.5v-727h-367zM467 474q26 0 48.5 -19.5t22.5 -50.5q0 -30 -20.5 -51t-50.5 -21q-29 0 -50 20.5t-21 51.5q0 28 19 49t52 21z" />
    <glyph glyph-name="nundagesh" unicode="&#xfb40;" horiz-adv-x="615" 
d="M59 166h93q26 0 45.5 5t32.5 11t22 22t13.5 28t6.5 39t2.5 44t0.5 54v733h-144v166h355v-941q0 -175 -59 -251t-209 -76h-159v166zM85 752q26 0 48.5 -19.5t22.5 -50.5q0 -30 -20.5 -51t-50.5 -21q-29 0 -50 20.5t-21 51.5q0 28 19 49t52 21z" />
    <glyph glyph-name="samekhdagesh" unicode="&#xfb41;" horiz-adv-x="935" 
d="M69 1268h755v-825q-2 -218 -109.5 -330.5t-335.5 -112.5h-205zM617 480v623h-324l76 -937h32q125 0 170.5 70.5t45.5 243.5zM474 878q26 0 48.5 -19.5t22.5 -50.5q0 -30 -20.5 -51t-50.5 -21q-29 0 -50 20.5t-21 51.5q0 28 19 49t52 21z" />
    <glyph glyph-name="pedagesh" unicode="&#xfb44;" horiz-adv-x="867" 
d="M101 1268h275q211 0 302.5 -111.5t91.5 -368.5v-310q0 -257 -91.5 -367.5t-302.5 -110.5h-275v166h285q44 0 74 12t53.5 43.5t34.5 91.5t11 152v339q0 91 -11 151t-34.5 91.5t-53.5 43.5t-74 12h-75v-493h-210v659zM312 476q26 0 48.5 -19.5t22.5 -50.5q0 -30 -20.5 -51
t-50.5 -21q-29 0 -50 20.5t-21 51.5q0 28 19 49t52 21z" />
    <glyph glyph-name="tsadidagesh" unicode="&#xfb46;" horiz-adv-x="925" 
d="M110 0v166h414l-480 1102h225l258 -597q50 4 69.5 32.5t19.5 122.5v442h212v-389q0 -170 -57 -251t-188 -98l239 -530h-712zM215 455q26 0 48.5 -19.5t22.5 -50.5q0 -30 -20.5 -51t-50.5 -21q-29 0 -50 20.5t-21 51.5q0 28 19 49t52 21z" />
    <glyph glyph-name="qofdagesh" unicode="&#xfb47;" horiz-adv-x="925" 
d="M115 -311v1119h210v-1119h-210zM115 1268h679v-825q0 -93 -4.5 -155.5t-17.5 -115t-34 -83t-56.5 -52t-83 -29.5t-115.5 -8h-49v165h44q57 0 80 41t23 161v735h-466v166zM419 997q26 0 48.5 -19.5t22.5 -50.5q0 -30 -20.5 -51t-50.5 -21q-29 0 -50 20.5t-21 51.5
q0 28 19 49t52 21z" />
    <glyph glyph-name="shindagesh" unicode="&#xfb49;" horiz-adv-x="1107" 
d="M808 1268h207v-688q0 -136 -22.5 -238t-62 -166.5t-99.5 -104.5t-127.5 -55.5t-154.5 -15.5h-373l-100 1268h210l84 -1102h138q46 0 79 4t70 16t62 36.5t46.5 63t32 98.5t10.5 140v744zM669 1268v-831h-211v831h211zM560 379q26 0 48.5 -19.5t22.5 -50.5q0 -30 -20.5 -51
t-50.5 -21q-29 0 -50 20.5t-21 51.5q0 28 19 49t52 21z" />
    <glyph glyph-name="tavdages" unicode="&#xfb4a;" horiz-adv-x="956" 
d="M110 1268h360q73 0 130 -14t96.5 -37.5t67 -64t43 -81t24 -102.5t11 -116t2.5 -133v-720h-210v779q0 159 -13 213q-23 90 -103 106q-19 4 -43 4h-73v-1102h-376v166h166v936h-82v166zM516 676q26 0 48.5 -19.5t22.5 -50.5q0 -30 -20.5 -51t-50.5 -21q-29 0 -50 20.5
t-21 51.5q0 28 19 49t52 21z" />
    <glyph glyph-name="vavholam" unicode="&#xfb4b;" horiz-adv-x="483" 
d="M137 1268h210v-1268h-210v1268zM174 1497q0 29 20.5 49.5t49.5 20.5t49.5 -20.5t20.5 -49.5t-20.5 -49.5t-49.5 -20.5t-49.5 20.5t-20.5 49.5z" />
    <glyph glyph-name="he.alt1" horiz-adv-x="930" 
d="M575 1102h-445v166h656v-1268h-211v1102zM126 0v783h213v-783h-213z" />
    </font>
</defs>
</svg>
